<svg id="visual" viewBox="0 0 900 600" width="900" height="600" xmlns="http://www.w3.org/2000/svg" xmlns:xlink="http://www.w3.org/1999/xlink" version="1.1"><g stroke-width="1" stroke-linejoin="bevel"><path d="M401 300L302 298L396 390Z" fill="#d0e3f7" stroke="#d0e3f7"></path><path d="M302 298L276 390L396 390Z" fill="#d0e3f7" stroke="#d0e3f7"></path><path d="M401 300L291 232L302 298Z" fill="#9ccef9" stroke="#9ccef9"></path><path d="M197 329L230 408L276 390Z" fill="#a7d2f8" stroke="#a7d2f8"></path><path d="M276 390L412 463L396 390Z" fill="#a7d2f8" stroke="#a7d2f8"></path><path d="M396 390L510 315L401 300Z" fill="#bcdbf7" stroke="#bcdbf7"></path><path d="M197 329L276 390L302 298Z" fill="#90caf9" stroke="#90caf9"></path><path d="M276 390L261 539L412 463Z" fill="#90caf9" stroke="#90caf9"></path><path d="M291 232L197 329L302 298Z" fill="#d0e3f7" stroke="#d0e3f7"></path><path d="M525 374L510 315L396 390Z" fill="#ecf1f5" stroke="#ecf1f5"></path><path d="M401 300L413 160L291 232Z" fill="#c6dff7" stroke="#c6dff7"></path><path d="M412 463L525 374L396 390Z" fill="#c6dff7" stroke="#c6dff7"></path><path d="M501 163L413 160L401 300Z" fill="#90caf9" stroke="#90caf9"></path><path d="M386 600L476 493L412 463Z" fill="#bcdbf7" stroke="#bcdbf7"></path><path d="M412 463L476 493L525 374Z" fill="#bcdbf7" stroke="#bcdbf7"></path><path d="M237 537L261 539L230 408Z" fill="#9ccef9" stroke="#9ccef9"></path><path d="M230 408L261 539L276 390Z" fill="#f5f5f5" stroke="#f5f5f5"></path><path d="M93 321L138 389L197 329Z" fill="#a7d2f8" stroke="#a7d2f8"></path><path d="M197 329L138 389L230 408Z" fill="#e3ecf6" stroke="#e3ecf6"></path><path d="M118 465L237 537L230 408Z" fill="#e3ecf6" stroke="#e3ecf6"></path><path d="M283 114L164 211L291 232Z" fill="#f5f5f5" stroke="#f5f5f5"></path><path d="M291 232L164 211L197 329Z" fill="#d0e3f7" stroke="#d0e3f7"></path><path d="M525 374L620 323L510 315Z" fill="#c6dff7" stroke="#c6dff7"></path><path d="M510 315L501 163L401 300Z" fill="#f5f5f5" stroke="#f5f5f5"></path><path d="M476 493L575 406L525 374Z" fill="#b2d7f8" stroke="#b2d7f8"></path><path d="M584 178L501 163L510 315Z" fill="#f5f5f5" stroke="#f5f5f5"></path><path d="M369 82L283 114L413 160Z" fill="#a7d2f8" stroke="#a7d2f8"></path><path d="M413 160L283 114L291 232Z" fill="#d0e3f7" stroke="#d0e3f7"></path><path d="M501 163L488 134L413 160Z" fill="#e3ecf6" stroke="#e3ecf6"></path><path d="M164 211L93 321L197 329Z" fill="#d9e8f6" stroke="#d9e8f6"></path><path d="M266 600L386 600L261 539Z" fill="#b2d7f8" stroke="#b2d7f8"></path><path d="M261 539L386 600L412 463Z" fill="#a7d2f8" stroke="#a7d2f8"></path><path d="M476 493L633 461L575 406Z" fill="#d9e8f6" stroke="#d9e8f6"></path><path d="M488 134L369 82L413 160Z" fill="#d9e8f6" stroke="#d9e8f6"></path><path d="M0 393L118 465L138 389Z" fill="#9ccef9" stroke="#9ccef9"></path><path d="M138 389L118 465L230 408Z" fill="#90caf9" stroke="#90caf9"></path><path d="M575 406L620 323L525 374Z" fill="#c6dff7" stroke="#c6dff7"></path><path d="M501 163L584 178L488 134Z" fill="#d0e3f7" stroke="#d0e3f7"></path><path d="M172 600L266 600L237 537Z" fill="#e3ecf6" stroke="#e3ecf6"></path><path d="M237 537L266 600L261 539Z" fill="#90caf9" stroke="#90caf9"></path><path d="M620 323L584 178L510 315Z" fill="#c6dff7" stroke="#c6dff7"></path><path d="M319 0L222 66L283 114Z" fill="#90caf9" stroke="#90caf9"></path><path d="M283 114L222 66L164 211Z" fill="#f5f5f5" stroke="#f5f5f5"></path><path d="M164 211L85 182L93 321Z" fill="#e3ecf6" stroke="#e3ecf6"></path><path d="M600 600L633 461L476 493Z" fill="#a7d2f8" stroke="#a7d2f8"></path><path d="M575 406L695 437L620 323Z" fill="#e3ecf6" stroke="#e3ecf6"></path><path d="M386 600L523 600L476 493Z" fill="#bcdbf7" stroke="#bcdbf7"></path><path d="M87 72L85 182L164 211Z" fill="#bcdbf7" stroke="#bcdbf7"></path><path d="M118 465L172 600L237 537Z" fill="#a7d2f8" stroke="#a7d2f8"></path><path d="M412 0L319 0L369 82Z" fill="#bcdbf7" stroke="#bcdbf7"></path><path d="M369 82L319 0L283 114Z" fill="#d9e8f6" stroke="#d9e8f6"></path><path d="M412 0L369 82L488 134Z" fill="#d0e3f7" stroke="#d0e3f7"></path><path d="M118 465L122 600L172 600Z" fill="#90caf9" stroke="#90caf9"></path><path d="M0 503L122 600L118 465Z" fill="#e3ecf6" stroke="#e3ecf6"></path><path d="M525 0L412 0L488 134Z" fill="#ecf1f5" stroke="#ecf1f5"></path><path d="M85 182L0 305L93 321Z" fill="#bcdbf7" stroke="#bcdbf7"></path><path d="M93 321L0 393L138 389Z" fill="#f5f5f5" stroke="#f5f5f5"></path><path d="M0 305L0 393L93 321Z" fill="#9ccef9" stroke="#9ccef9"></path><path d="M633 461L695 437L575 406Z" fill="#9ccef9" stroke="#9ccef9"></path><path d="M696 218L611 84L584 178Z" fill="#bcdbf7" stroke="#bcdbf7"></path><path d="M709 509L695 437L633 461Z" fill="#e3ecf6" stroke="#e3ecf6"></path><path d="M523 600L600 600L476 493Z" fill="#bcdbf7" stroke="#bcdbf7"></path><path d="M319 0L235 0L222 66Z" fill="#c6dff7" stroke="#c6dff7"></path><path d="M222 66L87 72L164 211Z" fill="#a7d2f8" stroke="#a7d2f8"></path><path d="M696 218L584 178L620 323Z" fill="#f5f5f5" stroke="#f5f5f5"></path><path d="M584 178L611 84L488 134Z" fill="#a7d2f8" stroke="#a7d2f8"></path><path d="M728 278L696 218L620 323Z" fill="#f5f5f5" stroke="#f5f5f5"></path><path d="M86 0L87 72L222 66Z" fill="#ecf1f5" stroke="#ecf1f5"></path><path d="M85 182L0 178L0 305Z" fill="#9ccef9" stroke="#9ccef9"></path><path d="M695 437L728 278L620 323Z" fill="#9ccef9" stroke="#9ccef9"></path><path d="M611 84L525 0L488 134Z" fill="#e3ecf6" stroke="#e3ecf6"></path><path d="M0 393L0 503L118 465Z" fill="#9ccef9" stroke="#9ccef9"></path><path d="M0 95L0 178L85 182Z" fill="#c6dff7" stroke="#c6dff7"></path><path d="M600 600L709 509L633 461Z" fill="#90caf9" stroke="#90caf9"></path><path d="M818 304L779 225L728 278Z" fill="#a7d2f8" stroke="#a7d2f8"></path><path d="M600 600L681 600L709 509Z" fill="#d0e3f7" stroke="#d0e3f7"></path><path d="M87 72L0 95L85 182Z" fill="#d9e8f6" stroke="#d9e8f6"></path><path d="M0 0L0 95L87 72Z" fill="#a7d2f8" stroke="#a7d2f8"></path><path d="M235 0L86 0L222 66Z" fill="#ecf1f5" stroke="#ecf1f5"></path><path d="M0 503L0 600L122 600Z" fill="#f5f5f5" stroke="#f5f5f5"></path><path d="M792 394L728 278L695 437Z" fill="#a7d2f8" stroke="#a7d2f8"></path><path d="M728 278L779 225L696 218Z" fill="#d0e3f7" stroke="#d0e3f7"></path><path d="M696 218L710 69L611 84Z" fill="#a7d2f8" stroke="#a7d2f8"></path><path d="M611 84L639 0L525 0Z" fill="#b2d7f8" stroke="#b2d7f8"></path><path d="M813 513L792 394L695 437Z" fill="#e3ecf6" stroke="#e3ecf6"></path><path d="M813 513L695 437L709 509Z" fill="#a7d2f8" stroke="#a7d2f8"></path><path d="M664 0L639 0L611 84Z" fill="#d9e8f6" stroke="#d9e8f6"></path><path d="M783 116L710 69L696 218Z" fill="#90caf9" stroke="#90caf9"></path><path d="M710 69L664 0L611 84Z" fill="#f5f5f5" stroke="#f5f5f5"></path><path d="M792 394L818 304L728 278Z" fill="#b2d7f8" stroke="#b2d7f8"></path><path d="M779 225L783 116L696 218Z" fill="#e3ecf6" stroke="#e3ecf6"></path><path d="M900 177L783 116L779 225Z" fill="#90caf9" stroke="#90caf9"></path><path d="M710 69L769 0L664 0Z" fill="#f5f5f5" stroke="#f5f5f5"></path><path d="M86 0L0 0L87 72Z" fill="#90caf9" stroke="#90caf9"></path><path d="M830 600L813 513L709 509Z" fill="#9ccef9" stroke="#9ccef9"></path><path d="M792 394L900 325L818 304Z" fill="#d0e3f7" stroke="#d0e3f7"></path><path d="M900 76L769 0L783 116Z" fill="#9ccef9" stroke="#9ccef9"></path><path d="M783 116L769 0L710 69Z" fill="#a7d2f8" stroke="#a7d2f8"></path><path d="M681 600L830 600L709 509Z" fill="#d9e8f6" stroke="#d9e8f6"></path><path d="M900 408L900 325L792 394Z" fill="#e3ecf6" stroke="#e3ecf6"></path><path d="M900 408L792 394L900 461Z" fill="#a7d2f8" stroke="#a7d2f8"></path><path d="M818 304L900 177L779 225Z" fill="#9ccef9" stroke="#9ccef9"></path><path d="M900 461L792 394L813 513Z" fill="#f5f5f5" stroke="#f5f5f5"></path><path d="M900 600L900 461L813 513Z" fill="#c6dff7" stroke="#c6dff7"></path><path d="M900 325L900 177L818 304Z" fill="#f5f5f5" stroke="#f5f5f5"></path><path d="M830 600L900 600L813 513Z" fill="#d0e3f7" stroke="#d0e3f7"></path><path d="M900 177L900 76L783 116Z" fill="#bcdbf7" stroke="#bcdbf7"></path><path d="M900 76L900 0L769 0Z" fill="#a7d2f8" stroke="#a7d2f8"></path></g></svg>